# xmcd
#
# Track frame offsets:
#  150
#  17760
#  29415
#  48750
#  69002
#  81812
#  97030
#  114767
#  135877
#  156052
#  164540
#  181145
#  202690
#  219952
#
# Disc length: 3178 seconds
#
# Revision: 0
# Processed by: cddbd v1.5.1PL2 Copyright (c) Steve Scherf et al.
# Submitted via: Collectorz.com_Music_Collector 6.9
#
DISCID=9e0c680e
DTITLE=Lorraine Morley - A Face Drawn In Sand
DYEAR=1995
DGENRE=Acoustic Pop
TTITLE0=Always The Same
TTITLE1=You
TTITLE2=Wayfaring Stranger
TTITLE3=But Last Night
TTITLE4=World Of My Own
TTITLE5=Happy Families
TTITLE6=Strangers
TTITLE7=Streatham Ice Rink
TTITLE8=Something Borrowed
TTITLE9=Moment Out Of Time
TTITLE10=Lost In The Waters
TTITLE11=The Whole Town's Laughing
TTITLE12=Fragile Thing
TTITLE13=A Face Drawn In Sand
EXTD=
EXTT0=
EXTT1=
EXTT2=
EXTT3=
EXTT4=
EXTT5=
EXTT6=
EXTT7=
EXTT8=
EXTT9=
EXTT10=
EXTT11=
EXTT12=
EXTT13=
PLAYORDER=
